<?xml version="1.0" encoding="UTF-8" standalone="no"?>
<svg
   xmlns:dc="http://purl.org/dc/elements/1.1/"
   xmlns:cc="http://creativecommons.org/ns#"
   xmlns:rdf="http://www.w3.org/1999/02/22-rdf-syntax-ns#"
   xmlns:svg="http://www.w3.org/2000/svg"
   xmlns="http://www.w3.org/2000/svg"
   xmlns:sodipodi="http://sodipodi.sourceforge.net/DTD/sodipodi-0.dtd"
   xmlns:inkscape="http://www.inkscape.org/namespaces/inkscape"
   id="Layer_4"
   viewBox="0 0 839 200"
   version="1.1"
   inkscape:version="0.91 r13725"
   sodipodi:docname="logo-white.svg">
  <metadata
     id="metadata3781">
    <rdf:RDF>
      <cc:Work
         rdf:about="">
        <dc:format>image/svg+xml</dc:format>
        <dc:type
           rdf:resource="http://purl.org/dc/dcmitype/StillImage" />
        <dc:title></dc:title>
      </cc:Work>
    </rdf:RDF>
  </metadata>
  <defs
     id="defs3779" />
  <sodipodi:namedview
     pagecolor="#ffffff"
     bordercolor="#666666"
     borderopacity="1"
     objecttolerance="10"
     gridtolerance="10"
     guidetolerance="10"
     inkscape:pageopacity="0"
     inkscape:pageshadow="2"
     inkscape:window-width="1855"
     inkscape:window-height="1017"
     id="namedview3777"
     showgrid="false"
     inkscape:zoom="0.77473182"
     inkscape:cx="269.01647"
     inkscape:cy="52.059923"
     inkscape:window-x="65"
     inkscape:window-y="32"
     inkscape:window-maximized="1"
     inkscape:current-layer="Layer_4" />
  <style
     id="style3749">.st0{fill:#FFFFFF;}</style>
  <g
     id="XMLID_261_">
    <path
       id="XMLID_259_"
       class="st0"
       d="M32.3 0H0l92.3 160 16.2-28z" />
    <path
       id="XMLID_258_"
       class="st0"
       d="M120.9 91L68.3 0H36.1l74.3 128.8 10.5-18.2c1.7-2.8 2.8-6.2 2.8-9.8-.1-3.6-1.1-6.9-2.8-9.8z" />
    <path
       id="XMLID_257_"
       class="st0"
       d="M56.3 104.1L.9 200h32.3l39.3-68z" />
    <path
       id="XMLID_256_"
       class="st0"
       d="M74.3 135.3L37 200h32.2l21.3-36.8z" />
  </g>
  <path
     inkscape:connector-curvature="0"
     id="XMLID_2_"
     class="st13"
     d="m 271.57616,55.403189 c 0,10.9 -3.2,19.7 -9.7,26.1 -7.4,7.7 -17,11.6 -28.8,11.6 -11.3,0 -20.9,-3.9 -28.8,-11.8 -7.9,-7.8 -11.9,-17.6 -11.9,-29.1 0,-11.5 4,-21.300002 11.9,-29.100002 7.9,-7.8 17.5,-11.8 28.8,-11.8 5.6,0 11,1.1 16.1,3.3 5.1,2.2 9.2,5.1 12.2,8.8 l -6.9,6.9 c -5.2,-6.2 -12.3,-9.3 -21.4,-9.3 -8.2,0 -15.4,2.9 -21.4,8.7 -6,5.800002 -9,13.300002 -9,22.600002 0,9.3 3,16.8 9,22.6 6,5.8 13.1,8.7 21.4,8.7 8.8,0 16,-2.9 21.9,-8.8 3.8,-3.8 6,-9.1 6.6,-15.9 l -28.5,0 0,-9.4 38,0 c 0.3,2.1 0.5,4 0.5,5.9 z"
     style="fill:#e6e6e6" />
  <path
     inkscape:connector-curvature="0"
     id="XMLID_4_"
     class="st13"
     d="m 281.47616,91.403189 0,-78.300002 24,0 c 12,0 21.7,3.6 28.9,10.9 7.2,7.3 10.8,16.700002 10.8,28.300002 0,11.6 -3.6,21 -10.8,28.3 -7.2,7.3 -16.8,10.9 -28.9,10.9 l -24,0 z m 10.1,-9.6 13.9,0 c 9,0 16.2,-2.6 21.5,-7.8 5.3,-5.2 7.9,-12.4 7.9,-21.8 0,-9.3 -2.6,-16.5 -7.9,-21.700002 -5.3,-5.2 -12.5,-7.8 -21.5,-7.8 l -13.9,0 0,59.100002 z"
     style="fill:#e6e6e6" />
  <path
     inkscape:connector-curvature="0"
     id="XMLID_8_"
     class="st13"
     d="m 430.57616,55.403189 c 0,10.9 -3.2,19.7 -9.7,26.1 -7.4,7.7 -17,11.6 -28.8,11.6 -11.3,0 -20.9,-3.9 -28.8,-11.8 -7.9,-7.8 -11.9,-17.6 -11.9,-29.1 0,-11.5 4,-21.300002 11.9,-29.100002 7.9,-7.8 17.5,-11.8 28.8,-11.8 5.6,0 11,1.1 16.1,3.3 5.1,2.2 9.2,5.1 12.2,8.8 l -6.9,6.9 c -5.2,-6.2 -12.3,-9.3 -21.4,-9.3 -8.2,0 -15.4,2.9 -21.4,8.7 -6,5.800002 -9,13.300002 -9,22.600002 0,9.3 3,16.8 9,22.6 6,5.8 13.1,8.7 21.4,8.7 8.8,0 16,-2.9 21.9,-8.8 3.8,-3.8 6,-9.1 6.6,-15.9 l -28.5,0 0,-9.4 38,0 c 0.3,2.1 0.5,4 0.5,5.9 z"
     style="fill:#e6e6e6" />
  <path
     inkscape:connector-curvature="0"
     id="XMLID_10_"
     class="st13"
     d="m 466.87616,91.403189 0,-78.300002 24,0 c 12,0 21.7,3.6 28.9,10.9 7.2,7.3 10.8,16.700002 10.8,28.300002 0,11.6 -3.6,21 -10.8,28.3 -7.2,7.3 -16.8,10.9 -28.9,10.9 l -24,0 z m 10.1,-9.6 13.9,0 c 9,0 16.2,-2.6 21.5,-7.8 5.3,-5.2 7.9,-12.4 7.9,-21.8 0,-9.3 -2.6,-16.5 -7.9,-21.700002 -5.3,-5.2 -12.5,-7.8 -21.5,-7.8 l -13.9,0 0,59.100002 z"
     style="fill:#e6e6e6" />
  <path
     inkscape:connector-curvature="0"
     id="XMLID_13_"
     class="st13"
     d="m 563.47616,93.203189 c -8.1,0 -14.7,-2.7 -19.7,-8.1 -5.1,-5.4 -7.6,-12.2 -7.6,-20.5 0,-7.8 2.5,-14.5 7.4,-20.1 4.9,-5.6 11.2,-8.4 18.9,-8.4 7.9,0 14.3,2.6 19.1,7.8 4.8,5.2 7.2,12.1 7.2,20.8 l -0.1,1.9 -42.3,0 c 0.3,5.4 2.1,9.7 5.4,12.8 3.3,3.1 7.2,4.7 11.6,4.7 7.2,0 12.1,-3.1 14.7,-9.2 l 9,3.7 c -1.8,4.2 -4.6,7.6 -8.6,10.4 -4.2,2.8 -9.1,4.2 -15,4.2 z m 14.5,-35 c -0.2,-3.1 -1.6,-6 -4.2,-8.8 -2.6,-2.8 -6.4,-4.2 -11.5,-4.2 -3.7,0 -6.9,1.2 -9.7,3.5 -2.7,2.3 -4.6,5.5 -5.6,9.4 l 31,0 z"
     style="fill:#e6e6e6" />
  <path
     inkscape:connector-curvature="0"
     id="XMLID_16_"
     class="st13"
     d="m 609.77616,91.403189 -21.7,-53.6 11,0 15.8,41.6 0.2,0 16,-41.6 10.7,0 -21.9,53.6 -10.1,0 z"
     style="fill:#e6e6e6" />
  <path
     inkscape:connector-curvature="0"
     id="XMLID_18_"
     class="st13"
     d="m 657.67616,91.403189 -10.1,0 0,-78.300002 45.7,0 0,9.6 -35.7,0 0,25.700002 32.2,0 0,9.4 -32.2,0 0,33.6 z"
     style="fill:#e6e6e6" />
  <path
     inkscape:connector-curvature="0"
     id="XMLID_20_"
     class="st13"
     d="m 723.77616,93.203189 c -8.1,0 -14.7,-2.7 -19.7,-8.1 -5.1,-5.4 -7.6,-12.2 -7.6,-20.5 0,-7.8 2.5,-14.5 7.4,-20.1 4.9,-5.6 11.2,-8.4 18.9,-8.4 7.9,0 14.3,2.6 19.1,7.8 4.8,5.2 7.2,12.1 7.2,20.8 l -0.1,1.9 -42.3,0 c 0.3,5.4 2.1,9.7 5.4,12.8 3.3,3.1 7.2,4.7 11.6,4.7 7.2,0 12.1,-3.1 14.7,-9.2 l 9,3.7 c -1.8,4.2 -4.6,7.6 -8.6,10.4 -4.3,2.8 -9.2,4.2 -15,4.2 z m 14.4,-35 c -0.2,-3.1 -1.6,-6 -4.2,-8.8 -2.6,-2.8 -6.4,-4.2 -11.5,-4.2 -3.7,0 -6.9,1.2 -9.7,3.5 -2.7,2.3 -4.6,5.5 -5.6,9.4 l 31,0 z"
     style="fill:#e6e6e6" />
  <path
     inkscape:connector-curvature="0"
     id="XMLID_27_"
     class="st13"
     d="m 775.57616,93.203189 c -6,0 -10.9,-1.5 -14.8,-4.4 -3.9,-2.9 -6.8,-6.6 -8.6,-10.9 l 9,-3.7 c 2.8,6.7 7.7,10.1 14.5,10.1 3.1,0 5.7,-0.7 7.7,-2.1 2,-1.4 3,-3.2 3,-5.5 0,-3.5 -2.4,-5.9 -7.3,-7.1 l -10.8,-2.6 c -3.4,-0.9 -6.7,-2.5 -9.7,-5 -3.1,-2.4 -4.6,-5.7 -4.6,-9.9 0,-4.7 2.1,-8.6 6.3,-11.5 4.2,-3 9.2,-4.4 14.9,-4.4 4.7,0 9,1.1 12.7,3.2 3.7,2.2 6.4,5.2 8,9.2 l -8.8,3.6 c -2,-4.7 -6.1,-7.1 -12.2,-7.1 -3,0 -5.5,0.6 -7.5,1.9 -2,1.2 -3.1,2.9 -3.1,5 0,3.1 2.4,5.1 7.1,6.2 l 10.6,2.5 c 5,1.2 8.8,3.2 11.2,6 2.4,2.8 3.6,6.1 3.6,9.6 0,4.8 -2,8.8 -5.9,12 -4,3.3 -9.1,4.9 -15.3,4.9 z"
     style="fill:#e6e6e6" />
  <path
     inkscape:connector-curvature="0"
     id="XMLID_29_"
     class="st13"
     d="m 826.97616,92.303189 c -5.6,0 -9.9,-1.5 -12.9,-4.5 -3,-3 -4.4,-7.2 -4.4,-12.7 l 0,-28.1 -9.4,0 0,-9.2 9.4,0 0,-16.400002 10.1,0 0,16.400002 13.1,0 0,9.2 -13.1,0 0,27.3 c 0,5.8 2.4,8.8 7.2,8.8 1.8,0 3.4,-0.3 4.6,-0.9 l 3.5,8.6 c -2.2,1 -4.9,1.5 -8.1,1.5 z"
     style="fill:#e6e6e6" />
  <g
     transform="translate(-12.824004,12.031729)"
     style="font-style:normal;font-weight:normal;font-size:50px;line-height:125%;font-family:sans-serif;letter-spacing:0px;word-spacing:0px;fill:#e6e6e6;fill-opacity:1;stroke:none;stroke-width:1px;stroke-linecap:butt;stroke-linejoin:miter;stroke-opacity:1"
     id="flowRoot3420">
    <path
       d="m 214.82016,126.7597 6.24,0 c 6.175,0 9.555,1.755 9.555,6.955 0,5.135 -3.38,7.735 -9.555,7.735 l -6.24,0 0,-14.69 z m 27.3,40.495 -11.245,-19.695 c 5.525,-2.145 9.165,-6.63 9.165,-13.845 0,-11.05 -7.995,-14.56 -18.07,-14.56 l -16.77,0 0,48.1 9.62,0 0,-18.2 6.695,0 9.88,18.2 10.725,0 z"
       style="font-style:normal;font-variant:normal;font-weight:bold;font-stretch:normal;font-size:65px;font-family:'Noto Sans CJK JP';-inkscape-font-specification:'Noto Sans CJK JP Bold';fill:#e6e6e6;fill-opacity:1"
       id="path3831" />
    <path
       d="m 263.76008,168.1647 c 4.55,0 9.165,-1.56 12.74,-4.03 l -3.25,-5.85 c -2.6,1.625 -5.2,2.535 -8.19,2.535 -5.395,0 -9.295,-3.12 -10.075,-9.1 l 22.425,0 c 0.26,-0.845 0.455,-2.6 0.455,-4.355 0,-10.075 -5.2,-17.42 -15.21,-17.42 -8.71,0 -16.965,7.345 -16.965,19.175 0,11.96 7.93,19.045 18.07,19.045 z m -8.905,-22.75 c 0.715,-5.33 4.095,-8.06 7.93,-8.06 4.68,0 6.89,3.12 6.89,8.06 l -14.82,0 z"
       style="font-style:normal;font-variant:normal;font-weight:bold;font-stretch:normal;font-size:65px;font-family:'Noto Sans CJK JP';-inkscape-font-specification:'Noto Sans CJK JP Bold';fill:#e6e6e6;fill-opacity:1"
       id="path3833" />
    <path
       d="m 297.71344,183.0497 c 12.155,0 19.76,-5.59 19.76,-12.935 0,-6.37 -4.745,-9.1 -13.52,-9.1 l -6.175,0 c -4.29,0 -5.72,-1.04 -5.72,-2.99 0,-1.43 0.52,-2.275 1.56,-3.12 1.56,0.52 3.25,0.845 4.68,0.845 7.8,0 14.04,-4.16 14.04,-12.35 0,-2.275 -0.715,-4.29 -1.69,-5.525 l 6.24,0 0,-7.02 -13.13,0 c -1.495,-0.52 -3.445,-0.91 -5.46,-0.91 -7.735,0 -14.69,4.615 -14.69,13.195 0,4.225 2.34,7.67 4.81,9.49 l 0,0.26 c -2.145,1.56 -4.03,4.095 -4.03,6.825 0,2.99 1.43,4.875 3.315,6.11 l 0,0.325 c -3.315,1.885 -5.2,4.485 -5.2,7.54 0,6.435 6.63,9.36 15.21,9.36 z m 0.585,-33.215 c -3.185,0 -5.72,-2.405 -5.72,-6.695 0,-4.29 2.47,-6.695 5.72,-6.695 3.25,0 5.655,2.405 5.655,6.695 0,4.29 -2.47,6.695 -5.655,6.695 z m 0.845,27.17 c -5.33,0 -8.71,-1.755 -8.71,-4.81 0,-1.495 0.78,-2.925 2.405,-4.225 1.3,0.325 2.86,0.52 5.07,0.52 l 4.42,0 c 3.9,0 6.045,0.65 6.045,3.25 0,2.86 -3.77,5.265 -9.23,5.265 z"
       style="font-style:normal;font-variant:normal;font-weight:bold;font-stretch:normal;font-size:65px;font-family:'Noto Sans CJK JP';-inkscape-font-specification:'Noto Sans CJK JP Bold';fill:#e6e6e6;fill-opacity:1"
       id="path3835" />
    <path
       d="m 336.56109,183.0497 c 12.155,0 19.76,-5.59 19.76,-12.935 0,-6.37 -4.745,-9.1 -13.52,-9.1 l -6.175,0 c -4.29,0 -5.72,-1.04 -5.72,-2.99 0,-1.43 0.52,-2.275 1.56,-3.12 1.56,0.52 3.25,0.845 4.68,0.845 7.8,0 14.04,-4.16 14.04,-12.35 0,-2.275 -0.715,-4.29 -1.69,-5.525 l 6.24,0 0,-7.02 -13.13,0 c -1.495,-0.52 -3.445,-0.91 -5.46,-0.91 -7.735,0 -14.69,4.615 -14.69,13.195 0,4.225 2.34,7.67 4.81,9.49 l 0,0.26 c -2.145,1.56 -4.03,4.095 -4.03,6.825 0,2.99 1.43,4.875 3.315,6.11 l 0,0.325 c -3.315,1.885 -5.2,4.485 -5.2,7.54 0,6.435 6.63,9.36 15.21,9.36 z m 0.585,-33.215 c -3.185,0 -5.72,-2.405 -5.72,-6.695 0,-4.29 2.47,-6.695 5.72,-6.695 3.25,0 5.655,2.405 5.655,6.695 0,4.29 -2.47,6.695 -5.655,6.695 z m 0.845,27.17 c -5.33,0 -8.71,-1.755 -8.71,-4.81 0,-1.495 0.78,-2.925 2.405,-4.225 1.3,0.325 2.86,0.52 5.07,0.52 l 4.42,0 c 3.9,0 6.045,0.65 6.045,3.25 0,2.86 -3.77,5.265 -9.23,5.265 z"
       style="font-style:normal;font-variant:normal;font-weight:bold;font-stretch:normal;font-size:65px;font-family:'Noto Sans CJK JP';-inkscape-font-specification:'Noto Sans CJK JP Bold';fill:#e6e6e6;fill-opacity:1"
       id="path3837" />
    <path
       d="m 362.60375,167.2547 9.49,0 0,-36.4 -9.49,0 0,36.4 z m 4.81,-42.25 c 3.25,0 5.655,-2.21 5.655,-5.2 0,-3.12 -2.405,-5.2 -5.655,-5.2 -3.315,0 -5.72,2.08 -5.72,5.2 0,2.99 2.405,5.2 5.72,5.2 z"
       style="font-style:normal;font-variant:normal;font-weight:bold;font-stretch:normal;font-size:65px;font-family:'Noto Sans CJK JP';-inkscape-font-specification:'Noto Sans CJK JP Bold';fill:#e6e6e6;fill-opacity:1"
       id="path3839" />
    <path
       d="m 397.61844,168.1647 c 9.1,0 17.485,-7.02 17.485,-19.045 0,-12.155 -8.385,-19.175 -17.485,-19.175 -9.1,0 -17.485,7.02 -17.485,19.175 0,12.025 8.385,19.045 17.485,19.045 z m 0,-7.8 c -4.94,0 -7.735,-4.42 -7.735,-11.245 0,-6.89 2.795,-11.375 7.735,-11.375 4.94,0 7.735,4.485 7.735,11.375 0,6.825 -2.795,11.245 -7.735,11.245 z"
       style="font-style:normal;font-variant:normal;font-weight:bold;font-stretch:normal;font-size:65px;font-family:'Noto Sans CJK JP';-inkscape-font-specification:'Noto Sans CJK JP Bold';fill:#e6e6e6;fill-opacity:1"
       id="path3841" />
    <path
       d="m 438.66695,167.2547 30.225,0 0,-8.06 -20.605,0 0,-12.87 16.9,0 0,-8.06 -16.9,0 0,-11.115 19.89,0 0,-7.995 -29.51,0 0,48.1 z"
       style="font-style:normal;font-variant:normal;font-weight:bold;font-stretch:normal;font-size:65px;font-family:'Noto Sans CJK JP';-inkscape-font-specification:'Noto Sans CJK JP Bold';fill:#e6e6e6;fill-opacity:1"
       id="path3843" />
    <path
       d="m 477.87719,167.2547 9.49,0 0,-25.025 c 2.6,-2.73 4.94,-4.095 7.02,-4.095 3.445,0 5.07,2.015 5.07,7.605 l 0,21.515 9.555,0 0,-25.025 c 2.6,-2.73 4.94,-4.095 7.02,-4.095 3.445,0 5.07,2.015 5.07,7.605 l 0,21.515 9.555,0 0,-22.685 c 0,-9.165 -3.575,-14.625 -11.31,-14.625 -4.745,0 -8.255,2.86 -11.57,6.37 -1.755,-4.03 -4.81,-6.37 -10.01,-6.37 -4.745,0 -8.125,2.6 -11.18,5.785 l -0.26,0 -0.65,-4.875 -7.8,0 0,36.4 z"
       style="font-style:normal;font-variant:normal;font-weight:bold;font-stretch:normal;font-size:65px;font-family:'Noto Sans CJK JP';-inkscape-font-specification:'Noto Sans CJK JP Bold';fill:#e6e6e6;fill-opacity:1"
       id="path3845" />
    <path
       d="m 540.59203,167.2547 9.49,0 0,-36.4 -9.49,0 0,36.4 z m 4.81,-42.25 c 3.25,0 5.655,-2.21 5.655,-5.2 0,-3.12 -2.405,-5.2 -5.655,-5.2 -3.315,0 -5.72,2.08 -5.72,5.2 0,2.99 2.405,5.2 5.72,5.2 z"
       style="font-style:normal;font-variant:normal;font-weight:bold;font-stretch:normal;font-size:65px;font-family:'Noto Sans CJK JP';-inkscape-font-specification:'Noto Sans CJK JP Bold';fill:#e6e6e6;fill-opacity:1"
       id="path3847" />
    <path
       d="m 569.36672,168.1647 c 2.21,0 3.835,-0.39 4.94,-0.845 l -1.17,-7.085 c -0.65,0.13 -0.91,0.13 -1.3,0.13 -0.91,0 -1.95,-0.715 -1.95,-2.86 l 0,-42.12 -9.49,0 0,41.665 c 0,6.76 2.34,11.115 8.97,11.115 z"
       style="font-style:normal;font-variant:normal;font-weight:bold;font-stretch:normal;font-size:65px;font-family:'Noto Sans CJK JP';-inkscape-font-specification:'Noto Sans CJK JP Bold';fill:#e6e6e6;fill-opacity:1"
       id="path3849" />
    <path
       d="m 580.83617,167.2547 9.49,0 0,-36.4 -9.49,0 0,36.4 z m 4.81,-42.25 c 3.25,0 5.655,-2.21 5.655,-5.2 0,-3.12 -2.405,-5.2 -5.655,-5.2 -3.315,0 -5.72,2.08 -5.72,5.2 0,2.99 2.405,5.2 5.72,5.2 z"
       style="font-style:normal;font-variant:normal;font-weight:bold;font-stretch:normal;font-size:65px;font-family:'Noto Sans CJK JP';-inkscape-font-specification:'Noto Sans CJK JP Bold';fill:#e6e6e6;fill-opacity:1"
       id="path3851" />
    <path
       d="m 609.61086,168.1647 c 4.16,0 7.8,-2.08 10.985,-4.81 l 0.195,0 0.715,3.9 7.8,0 0,-21.255 c 0,-10.53 -4.745,-16.055 -13.975,-16.055 -5.72,0 -10.92,2.145 -15.21,4.81 l 3.445,6.305 c 3.38,-1.95 6.63,-3.445 10.01,-3.445 4.485,0 6.045,2.73 6.175,6.305 -14.625,1.56 -20.93,5.655 -20.93,13.455 0,6.175 4.29,10.79 10.79,10.79 z m 3.12,-7.475 c -2.795,0 -4.81,-1.235 -4.81,-4.095 0,-3.25 2.99,-5.655 11.83,-6.825 l 0,7.345 c -2.275,2.275 -4.29,3.575 -7.02,3.575 z"
       style="font-style:normal;font-variant:normal;font-weight:bold;font-stretch:normal;font-size:65px;font-family:'Noto Sans CJK JP';-inkscape-font-specification:'Noto Sans CJK JP Bold';fill:#e6e6e6;fill-opacity:1"
       id="path3853" />
    <path
       d="m 651.49422,167.2547 32.24,0 0,-8.06 -10.465,0 c -2.21,0 -5.395,0.26 -7.8,0.52 8.775,-8.58 15.99,-17.94 15.99,-26.65 0,-8.97 -6.045,-14.82 -15.145,-14.82 -6.565,0 -10.855,2.6 -15.275,7.28 l 5.2,5.2 c 2.405,-2.665 5.33,-4.94 8.84,-4.94 4.55,0 7.215,2.925 7.215,7.8 0,7.41 -7.735,16.445 -20.8,28.145 l 0,5.525 z"
       style="font-style:normal;font-variant:normal;font-weight:bold;font-stretch:normal;font-size:65px;font-family:'Noto Sans CJK JP';-inkscape-font-specification:'Noto Sans CJK JP Bold';fill:#e6e6e6;fill-opacity:1"
       id="path3855" />
    <path
       d="m 706.21406,168.1647 c 9.75,0 16.25,-8.58 16.25,-25.155 0,-16.575 -6.5,-24.765 -16.25,-24.765 -9.815,0 -16.315,8.125 -16.315,24.765 0,16.575 6.5,25.155 16.315,25.155 z m 0,-7.475 c -4.16,0 -7.28,-4.16 -7.28,-17.68 0,-13.455 3.12,-17.355 7.28,-17.355 4.095,0 7.215,3.9 7.215,17.355 0,13.52 -3.12,17.68 -7.215,17.68 z"
       style="font-style:normal;font-variant:normal;font-weight:bold;font-stretch:normal;font-size:65px;font-family:'Noto Sans CJK JP';-inkscape-font-specification:'Noto Sans CJK JP Bold';fill:#e6e6e6;fill-opacity:1"
       id="path3857" />
    <path
       d="m 730.70891,167.2547 28.925,0 0,-7.735 -9.035,0 0,-40.365 -7.085,0 c -3.055,1.885 -6.37,3.12 -11.18,4.03 l 0,5.915 8.71,0 0,30.42 -10.335,0 0,7.735 z"
       style="font-style:normal;font-variant:normal;font-weight:bold;font-stretch:normal;font-size:65px;font-family:'Noto Sans CJK JP';-inkscape-font-specification:'Noto Sans CJK JP Bold';fill:#e6e6e6;fill-opacity:1"
       id="path3859" />
    <path
       d="m 775.80875,167.2547 9.685,0 c 0.78,-18.85 2.275,-28.665 13.455,-42.315 l 0,-5.785 -31.98,0 0,7.995 21.645,0 c -9.165,12.74 -11.96,23.4 -12.805,40.105 z"
       style="font-style:normal;font-variant:normal;font-weight:bold;font-stretch:normal;font-size:65px;font-family:'Noto Sans CJK JP';-inkscape-font-specification:'Noto Sans CJK JP Bold';fill:#e6e6e6;fill-opacity:1"
       id="path3861" />
  </g>
</svg>
