<?xml version="1.0" encoding="UTF-8" standalone="no"?>
<svg
   xmlns:dc="http://purl.org/dc/elements/1.1/"
   xmlns:cc="http://creativecommons.org/ns#"
   xmlns:rdf="http://www.w3.org/1999/02/22-rdf-syntax-ns#"
   xmlns:svg="http://www.w3.org/2000/svg"
   xmlns="http://www.w3.org/2000/svg"
   version="1.1"
   viewBox="0 0 839 200"
   id="Layer_4">
  <metadata
     id="metadata3746">
    <rdf:RDF>
      <cc:Work
         rdf:about="">
        <dc:format>image/svg+xml</dc:format>
        <dc:type
           rdf:resource="http://purl.org/dc/dcmitype/StillImage" />
        <dc:title></dc:title>
      </cc:Work>
    </rdf:RDF>
  </metadata>
  <defs
     id="defs3744" />
  <style
     id="style3673">.st0{fill:none;} .st1{fill:#FFC107;} .st2{fill:#0F9D58;} .st3{opacity:0.2;fill:#BF360C;enable-background:new ;} .st4{opacity:0.2;fill:#263238;enable-background:new ;} .st5{opacity:0.2;fill:#FFFFFF;enable-background:new ;} .st6{fill:url(#XMLID_126_);} .st7{fill:url(#XMLID_127_);} .st8{fill:#4285F4;} .st9{fill:#DB4437;} .st10{opacity:0.2;fill:#1A237E;enable-background:new ;} .st11{opacity:0.2;fill:#3E2723;enable-background:new ;} .st12{fill:url(#XMLID_128_);} .st13{fill:#FAFAFA;}</style>
  <g
     id="XMLID_60_">
    <g
       id="XMLID_61_">
      <g
         id="XMLID_62_">
        <path
           d="M122.5 90.6L70.1 0H0l57.8 100L0 200h70.1l52.4-90.6c3.3-5.8 3.3-13 0-18.8z"
           class="st0"
           id="XMLID_106_" />
        <path
           d="M92.4 159.8l-16.6-28.7L35.9 200h34.2l22.8-39.4z"
           class="st1"
           id="XMLID_105_" />
        <path
           d="M122.5 90.6L70.1 0H0l57.8 100L0 200h70.1l52.4-90.6c3.3-5.8 3.3-13 0-18.8z"
           class="st0"
           id="XMLID_104_" />
        <path
           d="M57.8 100l18 31.1L35.9 200H0z"
           class="st2"
           id="XMLID_103_" />
        <path
           d="M122.5 90.6L70.1 0H0l57.8 100L0 200h70.1l52.4-90.6c3.3-5.8 3.3-13 0-18.8z"
           class="st0"
           id="XMLID_102_" />
        <path
           d="M70.1 198.4H36.8l-.9 1.6h34.2l22.8-39.4-.5-.8z"
           class="st3"
           id="XMLID_101_" />
        <path
           d="M122.5 90.6L70.1 0H0l57.8 100L0 200h70.1l52.4-90.6c3.3-5.8 3.3-13 0-18.8z"
           class="st0"
           id="XMLID_100_" />
        <path
           d="M.9 198.4L0 200h35.9l.9-1.6z"
           class="st4"
           id="XMLID_99_" />
        <path
           d="M122.5 90.6L70.1 0H0l57.8 100L0 200h70.1l52.4-90.6c3.3-5.8 3.3-13 0-18.8z"
           class="st0"
           id="XMLID_98_" />
        <path
           d="M0 200h.9l57.4-99.2-.5-.8z"
           class="st5"
           id="XMLID_96_" />
        <path
           d="M122.5 90.6L70.1 0H0l57.8 100L0 200h70.1l52.4-90.6c3.3-5.8 3.3-13 0-18.8z"
           class="st0"
           id="XMLID_94_" />
        <radialGradient
           gradientUnits="userSpaceOnUse"
           gradientTransform="matrix(1 0 0 -1 0 2867.46)"
           r="69.162"
           cy="2707.501"
           cx="92.62"
           id="XMLID_126_">
          <stop
             id="stop3690"
             stop-opacity=".2"
             stop-color="#BF360C"
             offset="0" />
          <stop
             id="stop3692"
             stop-opacity=".02"
             stop-color="#BF360C"
             offset="1" />
        </radialGradient>
        <path
           d="M92.9 160.6l-17.1-29.5-4.2 7.2z"
           class="st6"
           id="XMLID_92_" />
        <path
           d="M122.5 90.6L70.1 0H0l57.8 100L0 200h70.1l52.4-90.6c3.3-5.8 3.3-13 0-18.8z"
           class="st0"
           id="XMLID_90_" />
        <radialGradient
           gradientUnits="userSpaceOnUse"
           gradientTransform="matrix(1 0 0 -1 0 2867.46)"
           r="69.723"
           cy="2707.063"
           cx="92.423"
           id="XMLID_127_">
          <stop
             id="stop3697"
             stop-opacity=".2"
             stop-color="#263238"
             offset="0" />
          <stop
             id="stop3699"
             stop-opacity=".02"
             stop-color="#263238"
             offset="1" />
        </radialGradient>
        <path
           d="M71.6 138.3l4.2-7.2-18-31.1-8.5 14.8z"
           class="st7"
           id="XMLID_89_" />
        <path
           d="M122.5 90.6L70.1 0H0l57.8 100L0 200h70.1l52.4-90.6c3.3-5.8 3.3-13 0-18.8z"
           class="st0"
           id="XMLID_88_" />
        <g
           id="XMLID_85_">
          <g
             id="XMLID_86_">
            <path
               d="M35.9 0H0l92.9 160.6 17.9-31.1z"
               class="st8"
               id="XMLID_87_" />
          </g>
        </g>
        <path
           d="M122.5 90.6L70.1 0H0l57.8 100L0 200h70.1l52.4-90.6c3.3-5.8 3.3-13 0-18.8z"
           class="st0"
           id="XMLID_84_" />
        <path
           d="M122.5 109.4c3.4-5.8 3.4-13 0-18.8L70.1 0H35.9l74.9 129.5 11.7-20.1z"
           class="st9"
           id="XMLID_83_" />
        <path
           d="M122.5 90.6L70.1 0H0l57.8 100L0 200h70.1l52.4-90.6c3.3-5.8 3.3-13 0-18.8z"
           class="st0"
           id="XMLID_82_" />
        <path
           d="M110.8 129.5l-.4-.8L92.9 159 .9 0H0l92.9 160.6 17.9-31.1z"
           class="st10"
           id="XMLID_71_" />
        <path
           d="M122.5 90.6L70.1 0H0l57.8 100L0 200h70.1l52.4-90.6c3.3-5.8 3.3-13 0-18.8z"
           class="st0"
           id="XMLID_69_" />
        <path
           d="M70.1 1.6l52.4 90.6c1.5 2.7 2.3 5.6 2.5 8.6.1-3.5-.7-7-2.5-10.2L70.1 0H0l.9 1.6h69.2z"
           class="st5"
           id="XMLID_67_" />
        <path
           d="M122.5 90.6L70.1 0H0l57.8 100L0 200h70.1l52.4-90.6c3.3-5.8 3.3-13 0-18.8z"
           class="st0"
           id="XMLID_66_" />
        <path
           d="M110.8 129.5l11.6-20.1c1.8-3.1 2.6-6.7 2.5-10.2-.1 3-.9 5.9-2.5 8.6l-12.1 20.9.5.8z"
           class="st11"
           id="XMLID_65_" />
        <path
           d="M122.5 90.6L70.1 0H0l57.8 100L0 200h70.1l52.4-90.6c3.3-5.8 3.3-13 0-18.8z"
           class="st0"
           id="XMLID_64_" />
        <radialGradient
           gradientUnits="userSpaceOnUse"
           gradientTransform="matrix(1 0 0 -1 0 2867.46)"
           r="209.922"
           cy="2865.898"
           cx="-1.563"
           id="XMLID_128_">
          <stop
             id="stop3716"
             stop-opacity=".1"
             stop-color="#FFF"
             offset="0" />
          <stop
             id="stop3718"
             stop-opacity="0"
             stop-color="#FFF"
             offset="1" />
        </radialGradient>
        <path
           d="M122.5 90.6L70.1 0H0l57.8 100L0 200h70.1l52.4-90.6c3.3-5.8 3.3-13 0-18.8z"
           class="st12"
           id="XMLID_63_" />
      </g>
    </g>
  </g>
  <path
     style="fill:#e6e6e6"
     d="m 268.05583,52.725307 c 0,10.9 -3.2,19.7 -9.7,26.1 -7.4,7.7 -17,11.6 -28.8,11.6 -11.3,0 -20.9,-3.9 -28.8,-11.8 -7.9,-7.8 -11.9,-17.6 -11.9,-29.1 0,-11.5 4,-21.3 11.9,-29.1 7.9,-7.8 17.5,-11.7999997 28.8,-11.7999997 5.6,0 11,1.1 16.1,3.2999997 5.1,2.2 9.2,5.1 12.2,8.8 l -6.9,6.9 c -5.2,-6.2 -12.3,-9.3 -21.4,-9.3 -8.2,0 -15.4,2.9 -21.4,8.7 -6,5.8 -9,13.3 -9,22.6 0,9.3 3,16.8 9,22.6 6,5.8 13.1,8.7 21.4,8.7 8.8,0 16,-2.9 21.9,-8.8 3.8,-3.8 6,-9.1 6.6,-15.9 l -28.5,0 0,-9.4 38,0 c 0.3,2.1 0.5,4 0.5,5.9 z"
     class="st13"
     id="XMLID_2_" />
  <path
     style="fill:#e6e6e6"
     d="m 277.95583,88.725307 0,-78.3 24,0 c 12,0 21.7,3.6 28.9,10.9 7.2,7.3 10.8,16.7 10.8,28.3 0,11.6 -3.6,21 -10.8,28.3 -7.2,7.3 -16.8,10.9 -28.9,10.9 l -24,0 z m 10.1,-9.6 13.9,0 c 9,0 16.2,-2.6 21.5,-7.8 5.3,-5.2 7.9,-12.4 7.9,-21.8 0,-9.3 -2.6,-16.5 -7.9,-21.7 -5.3,-5.2 -12.5,-7.8 -21.5,-7.8 l -13.9,0 0,59.1 z"
     class="st13"
     id="XMLID_4_" />
  <path
     style="fill:#e6e6e6"
     d="m 427.05583,52.725307 c 0,10.9 -3.2,19.7 -9.7,26.1 -7.4,7.7 -17,11.6 -28.8,11.6 -11.3,0 -20.9,-3.9 -28.8,-11.8 -7.9,-7.8 -11.9,-17.6 -11.9,-29.1 0,-11.5 4,-21.3 11.9,-29.1 7.9,-7.8 17.5,-11.7999997 28.8,-11.7999997 5.6,0 11,1.1 16.1,3.2999997 5.1,2.2 9.2,5.1 12.2,8.8 l -6.9,6.9 c -5.2,-6.2 -12.3,-9.3 -21.4,-9.3 -8.2,0 -15.4,2.9 -21.4,8.7 -6,5.8 -9,13.3 -9,22.6 0,9.3 3,16.8 9,22.6 6,5.8 13.1,8.7 21.4,8.7 8.8,0 16,-2.9 21.9,-8.8 3.8,-3.8 6,-9.1 6.6,-15.9 l -28.5,0 0,-9.4 38,0 c 0.3,2.1 0.5,4 0.5,5.9 z"
     class="st13"
     id="XMLID_8_" />
  <path
     style="fill:#e6e6e6"
     d="m 463.35583,88.725307 0,-78.3 24,0 c 12,0 21.7,3.6 28.9,10.9 7.2,7.3 10.8,16.7 10.8,28.3 0,11.6 -3.6,21 -10.8,28.3 -7.2,7.3 -16.8,10.9 -28.9,10.9 l -24,0 z m 10.1,-9.6 13.9,0 c 9,0 16.2,-2.6 21.5,-7.8 5.3,-5.2 7.9,-12.4 7.9,-21.8 0,-9.3 -2.6,-16.5 -7.9,-21.7 -5.3,-5.2 -12.5,-7.8 -21.5,-7.8 l -13.9,0 0,59.1 z"
     class="st13"
     id="XMLID_10_" />
  <path
     style="fill:#e6e6e6"
     d="m 559.95583,90.525307 c -8.1,0 -14.7,-2.7 -19.7,-8.1 -5.1,-5.4 -7.6,-12.2 -7.6,-20.5 0,-7.8 2.5,-14.5 7.4,-20.1 4.9,-5.6 11.2,-8.4 18.9,-8.4 7.9,0 14.3,2.6 19.1,7.8 4.8,5.2 7.2,12.1 7.2,20.8 l -0.1,1.9 -42.3,0 c 0.3,5.4 2.1,9.7 5.4,12.8 3.3,3.1 7.2,4.7 11.6,4.7 7.2,0 12.1,-3.1 14.7,-9.2 l 9,3.7 c -1.8,4.2 -4.6,7.6 -8.6,10.4 -4.2,2.8 -9.1,4.2 -15,4.2 z m 14.5,-35 c -0.2,-3.1 -1.6,-6 -4.2,-8.8 -2.6,-2.8 -6.4,-4.2 -11.5,-4.2 -3.7,0 -6.9,1.2 -9.7,3.5 -2.7,2.3 -4.6,5.5 -5.6,9.4 l 31,0 z"
     class="st13"
     id="XMLID_13_" />
  <path
     style="fill:#e6e6e6"
     d="m 606.25583,88.725307 -21.7,-53.6 11,0 15.8,41.6 0.2,0 16,-41.6 10.7,0 -21.9,53.6 -10.1,0 z"
     class="st13"
     id="XMLID_16_" />
  <path
     style="fill:#e6e6e6"
     d="m 654.15583,88.725307 -10.1,0 0,-78.3 45.7,0 0,9.6 -35.7,0 0,25.7 32.2,0 0,9.4 -32.2,0 0,33.6 z"
     class="st13"
     id="XMLID_18_" />
  <path
     style="fill:#e6e6e6"
     d="m 720.25583,90.525307 c -8.1,0 -14.7,-2.7 -19.7,-8.1 -5.1,-5.4 -7.6,-12.2 -7.6,-20.5 0,-7.8 2.5,-14.5 7.4,-20.1 4.9,-5.6 11.2,-8.4 18.9,-8.4 7.9,0 14.3,2.6 19.1,7.8 4.8,5.2 7.2,12.1 7.2,20.8 l -0.1,1.9 -42.3,0 c 0.3,5.4 2.1,9.7 5.4,12.8 3.3,3.1 7.2,4.7 11.6,4.7 7.2,0 12.1,-3.1 14.7,-9.2 l 9,3.7 c -1.8,4.2 -4.6,7.6 -8.6,10.4 -4.3,2.8 -9.2,4.2 -15,4.2 z m 14.4,-35 c -0.2,-3.1 -1.6,-6 -4.2,-8.8 -2.6,-2.8 -6.4,-4.2 -11.5,-4.2 -3.7,0 -6.9,1.2 -9.7,3.5 -2.7,2.3 -4.6,5.5 -5.6,9.4 l 31,0 z"
     class="st13"
     id="XMLID_20_" />
  <path
     style="fill:#e6e6e6"
     d="m 772.05583,90.525307 c -6,0 -10.9,-1.5 -14.8,-4.4 -3.9,-2.9 -6.8,-6.6 -8.6,-10.9 l 9,-3.7 c 2.8,6.7 7.7,10.1 14.5,10.1 3.1,0 5.7,-0.7 7.7,-2.1 2,-1.4 3,-3.2 3,-5.5 0,-3.5 -2.4,-5.9 -7.3,-7.1 l -10.8,-2.6 c -3.4,-0.9 -6.7,-2.5 -9.7,-5 -3.1,-2.4 -4.6,-5.7 -4.6,-9.9 0,-4.7 2.1,-8.6 6.3,-11.5 4.2,-3 9.2,-4.4 14.9,-4.4 4.7,0 9,1.1 12.7,3.2 3.7,2.2 6.4,5.2 8,9.2 l -8.8,3.6 c -2,-4.7 -6.1,-7.1 -12.2,-7.1 -3,0 -5.5,0.6 -7.5,1.9 -2,1.2 -3.1,2.9 -3.1,5 0,3.1 2.4,5.1 7.1,6.2 l 10.6,2.5 c 5,1.2 8.8,3.2 11.2,6 2.4,2.8 3.6,6.1 3.6,9.6 0,4.8 -2,8.8 -5.9,12 -4,3.3 -9.1,4.9 -15.3,4.9 z"
     class="st13"
     id="XMLID_27_" />
  <path
     style="fill:#e6e6e6"
     d="m 823.45583,89.625307 c -5.6,0 -9.9,-1.5 -12.9,-4.5 -3,-3 -4.4,-7.2 -4.4,-12.7 l 0,-28.1 -9.4,0 0,-9.2 9.4,0 0,-16.4 10.1,0 0,16.4 13.1,0 0,9.2 -13.1,0 0,27.3 c 0,5.8 2.4,8.8 7.2,8.8 1.8,0 3.4,-0.3 4.6,-0.9 l 3.5,8.6 c -2.2,1 -4.9,1.5 -8.1,1.5 z"
     class="st13"
     id="XMLID_29_" />
  <g
     id="flowRoot3420"
     style="font-style:normal;font-weight:normal;font-size:50px;line-height:125%;font-family:sans-serif;letter-spacing:0px;word-spacing:0px;fill:#000000;fill-opacity:1;stroke:none;stroke-width:1px;stroke-linecap:butt;stroke-linejoin:miter;stroke-opacity:1"
     transform="translate(-16.34433,9.3538493)">
    <path
       id="path5223"
       style="font-style:normal;font-variant:normal;font-weight:bold;font-stretch:normal;font-size:65px;font-family:'Noto Sans CJK JP';-inkscape-font-specification:'Noto Sans CJK JP Bold';fill:#e6e6e6;fill-opacity:1;stroke:none;stroke-opacity:1"
       d="m 214.82016,126.7597 6.24,0 c 6.175,0 9.555,1.755 9.555,6.955 0,5.135 -3.38,7.735 -9.555,7.735 l -6.24,0 0,-14.69 z m 27.3,40.495 -11.245,-19.695 c 5.525,-2.145 9.165,-6.63 9.165,-13.845 0,-11.05 -7.995,-14.56 -18.07,-14.56 l -16.77,0 0,48.1 9.62,0 0,-18.2 6.695,0 9.88,18.2 10.725,0 z" />
    <path
       id="path5225"
       style="font-style:normal;font-variant:normal;font-weight:bold;font-stretch:normal;font-size:65px;font-family:'Noto Sans CJK JP';-inkscape-font-specification:'Noto Sans CJK JP Bold';fill:#e6e6e6;fill-opacity:1;stroke:none;stroke-opacity:1"
       d="m 263.76008,168.1647 c 4.55,0 9.165,-1.56 12.74,-4.03 l -3.25,-5.85 c -2.6,1.625 -5.2,2.535 -8.19,2.535 -5.395,0 -9.295,-3.12 -10.075,-9.1 l 22.425,0 c 0.26,-0.845 0.455,-2.6 0.455,-4.355 0,-10.075 -5.2,-17.42 -15.21,-17.42 -8.71,0 -16.965,7.345 -16.965,19.175 0,11.96 7.93,19.045 18.07,19.045 z m -8.905,-22.75 c 0.715,-5.33 4.095,-8.06 7.93,-8.06 4.68,0 6.89,3.12 6.89,8.06 l -14.82,0 z" />
    <path
       id="path5227"
       style="font-style:normal;font-variant:normal;font-weight:bold;font-stretch:normal;font-size:65px;font-family:'Noto Sans CJK JP';-inkscape-font-specification:'Noto Sans CJK JP Bold';fill:#e6e6e6;fill-opacity:1;stroke:none;stroke-opacity:1"
       d="m 297.71344,183.0497 c 12.155,0 19.76,-5.59 19.76,-12.935 0,-6.37 -4.745,-9.1 -13.52,-9.1 l -6.175,0 c -4.29,0 -5.72,-1.04 -5.72,-2.99 0,-1.43 0.52,-2.275 1.56,-3.12 1.56,0.52 3.25,0.845 4.68,0.845 7.8,0 14.04,-4.16 14.04,-12.35 0,-2.275 -0.715,-4.29 -1.69,-5.525 l 6.24,0 0,-7.02 -13.13,0 c -1.495,-0.52 -3.445,-0.91 -5.46,-0.91 -7.735,0 -14.69,4.615 -14.69,13.195 0,4.225 2.34,7.67 4.81,9.49 l 0,0.26 c -2.145,1.56 -4.03,4.095 -4.03,6.825 0,2.99 1.43,4.875 3.315,6.11 l 0,0.325 c -3.315,1.885 -5.2,4.485 -5.2,7.54 0,6.435 6.63,9.36 15.21,9.36 z m 0.585,-33.215 c -3.185,0 -5.72,-2.405 -5.72,-6.695 0,-4.29 2.47,-6.695 5.72,-6.695 3.25,0 5.655,2.405 5.655,6.695 0,4.29 -2.47,6.695 -5.655,6.695 z m 0.845,27.17 c -5.33,0 -8.71,-1.755 -8.71,-4.81 0,-1.495 0.78,-2.925 2.405,-4.225 1.3,0.325 2.86,0.52 5.07,0.52 l 4.42,0 c 3.9,0 6.045,0.65 6.045,3.25 0,2.86 -3.77,5.265 -9.23,5.265 z" />
    <path
       id="path5229"
       style="font-style:normal;font-variant:normal;font-weight:bold;font-stretch:normal;font-size:65px;font-family:'Noto Sans CJK JP';-inkscape-font-specification:'Noto Sans CJK JP Bold';fill:#e6e6e6;fill-opacity:1;stroke:none;stroke-opacity:1"
       d="m 336.56109,183.0497 c 12.155,0 19.76,-5.59 19.76,-12.935 0,-6.37 -4.745,-9.1 -13.52,-9.1 l -6.175,0 c -4.29,0 -5.72,-1.04 -5.72,-2.99 0,-1.43 0.52,-2.275 1.56,-3.12 1.56,0.52 3.25,0.845 4.68,0.845 7.8,0 14.04,-4.16 14.04,-12.35 0,-2.275 -0.715,-4.29 -1.69,-5.525 l 6.24,0 0,-7.02 -13.13,0 c -1.495,-0.52 -3.445,-0.91 -5.46,-0.91 -7.735,0 -14.69,4.615 -14.69,13.195 0,4.225 2.34,7.67 4.81,9.49 l 0,0.26 c -2.145,1.56 -4.03,4.095 -4.03,6.825 0,2.99 1.43,4.875 3.315,6.11 l 0,0.325 c -3.315,1.885 -5.2,4.485 -5.2,7.54 0,6.435 6.63,9.36 15.21,9.36 z m 0.585,-33.215 c -3.185,0 -5.72,-2.405 -5.72,-6.695 0,-4.29 2.47,-6.695 5.72,-6.695 3.25,0 5.655,2.405 5.655,6.695 0,4.29 -2.47,6.695 -5.655,6.695 z m 0.845,27.17 c -5.33,0 -8.71,-1.755 -8.71,-4.81 0,-1.495 0.78,-2.925 2.405,-4.225 1.3,0.325 2.86,0.52 5.07,0.52 l 4.42,0 c 3.9,0 6.045,0.65 6.045,3.25 0,2.86 -3.77,5.265 -9.23,5.265 z" />
    <path
       id="path5231"
       style="font-style:normal;font-variant:normal;font-weight:bold;font-stretch:normal;font-size:65px;font-family:'Noto Sans CJK JP';-inkscape-font-specification:'Noto Sans CJK JP Bold';fill:#e6e6e6;fill-opacity:1;stroke:none;stroke-opacity:1"
       d="m 362.60375,167.2547 9.49,0 0,-36.4 -9.49,0 0,36.4 z m 4.81,-42.25 c 3.25,0 5.655,-2.21 5.655,-5.2 0,-3.12 -2.405,-5.2 -5.655,-5.2 -3.315,0 -5.72,2.08 -5.72,5.2 0,2.99 2.405,5.2 5.72,5.2 z" />
    <path
       id="path5233"
       style="font-style:normal;font-variant:normal;font-weight:bold;font-stretch:normal;font-size:65px;font-family:'Noto Sans CJK JP';-inkscape-font-specification:'Noto Sans CJK JP Bold';fill:#e6e6e6;fill-opacity:1;stroke:none;stroke-opacity:1"
       d="m 397.61844,168.1647 c 9.1,0 17.485,-7.02 17.485,-19.045 0,-12.155 -8.385,-19.175 -17.485,-19.175 -9.1,0 -17.485,7.02 -17.485,19.175 0,12.025 8.385,19.045 17.485,19.045 z m 0,-7.8 c -4.94,0 -7.735,-4.42 -7.735,-11.245 0,-6.89 2.795,-11.375 7.735,-11.375 4.94,0 7.735,4.485 7.735,11.375 0,6.825 -2.795,11.245 -7.735,11.245 z" />
    <path
       id="path5235"
       style="font-style:normal;font-variant:normal;font-weight:bold;font-stretch:normal;font-size:65px;font-family:'Noto Sans CJK JP';-inkscape-font-specification:'Noto Sans CJK JP Bold';fill:#e6e6e6;fill-opacity:1;stroke:none;stroke-opacity:1"
       d="m 438.66695,167.2547 30.225,0 0,-8.06 -20.605,0 0,-12.87 16.9,0 0,-8.06 -16.9,0 0,-11.115 19.89,0 0,-7.995 -29.51,0 0,48.1 z" />
    <path
       id="path5237"
       style="font-style:normal;font-variant:normal;font-weight:bold;font-stretch:normal;font-size:65px;font-family:'Noto Sans CJK JP';-inkscape-font-specification:'Noto Sans CJK JP Bold';fill:#e6e6e6;fill-opacity:1;stroke:none;stroke-opacity:1"
       d="m 477.87719,167.2547 9.49,0 0,-25.025 c 2.6,-2.73 4.94,-4.095 7.02,-4.095 3.445,0 5.07,2.015 5.07,7.605 l 0,21.515 9.555,0 0,-25.025 c 2.6,-2.73 4.94,-4.095 7.02,-4.095 3.445,0 5.07,2.015 5.07,7.605 l 0,21.515 9.555,0 0,-22.685 c 0,-9.165 -3.575,-14.625 -11.31,-14.625 -4.745,0 -8.255,2.86 -11.57,6.37 -1.755,-4.03 -4.81,-6.37 -10.01,-6.37 -4.745,0 -8.125,2.6 -11.18,5.785 l -0.26,0 -0.65,-4.875 -7.8,0 0,36.4 z" />
    <path
       id="path5239"
       style="font-style:normal;font-variant:normal;font-weight:bold;font-stretch:normal;font-size:65px;font-family:'Noto Sans CJK JP';-inkscape-font-specification:'Noto Sans CJK JP Bold';fill:#e6e6e6;fill-opacity:1;stroke:none;stroke-opacity:1"
       d="m 540.59203,167.2547 9.49,0 0,-36.4 -9.49,0 0,36.4 z m 4.81,-42.25 c 3.25,0 5.655,-2.21 5.655,-5.2 0,-3.12 -2.405,-5.2 -5.655,-5.2 -3.315,0 -5.72,2.08 -5.72,5.2 0,2.99 2.405,5.2 5.72,5.2 z" />
    <path
       id="path5241"
       style="font-style:normal;font-variant:normal;font-weight:bold;font-stretch:normal;font-size:65px;font-family:'Noto Sans CJK JP';-inkscape-font-specification:'Noto Sans CJK JP Bold';fill:#e6e6e6;fill-opacity:1;stroke:none;stroke-opacity:1"
       d="m 569.36672,168.1647 c 2.21,0 3.835,-0.39 4.94,-0.845 l -1.17,-7.085 c -0.65,0.13 -0.91,0.13 -1.3,0.13 -0.91,0 -1.95,-0.715 -1.95,-2.86 l 0,-42.12 -9.49,0 0,41.665 c 0,6.76 2.34,11.115 8.97,11.115 z" />
    <path
       id="path5243"
       style="font-style:normal;font-variant:normal;font-weight:bold;font-stretch:normal;font-size:65px;font-family:'Noto Sans CJK JP';-inkscape-font-specification:'Noto Sans CJK JP Bold';fill:#e6e6e6;fill-opacity:1;stroke:none;stroke-opacity:1"
       d="m 580.83617,167.2547 9.49,0 0,-36.4 -9.49,0 0,36.4 z m 4.81,-42.25 c 3.25,0 5.655,-2.21 5.655,-5.2 0,-3.12 -2.405,-5.2 -5.655,-5.2 -3.315,0 -5.72,2.08 -5.72,5.2 0,2.99 2.405,5.2 5.72,5.2 z" />
    <path
       id="path5245"
       style="font-style:normal;font-variant:normal;font-weight:bold;font-stretch:normal;font-size:65px;font-family:'Noto Sans CJK JP';-inkscape-font-specification:'Noto Sans CJK JP Bold';fill:#e6e6e6;fill-opacity:1;stroke:none;stroke-opacity:1"
       d="m 609.61086,168.1647 c 4.16,0 7.8,-2.08 10.985,-4.81 l 0.195,0 0.715,3.9 7.8,0 0,-21.255 c 0,-10.53 -4.745,-16.055 -13.975,-16.055 -5.72,0 -10.92,2.145 -15.21,4.81 l 3.445,6.305 c 3.38,-1.95 6.63,-3.445 10.01,-3.445 4.485,0 6.045,2.73 6.175,6.305 -14.625,1.56 -20.93,5.655 -20.93,13.455 0,6.175 4.29,10.79 10.79,10.79 z m 3.12,-7.475 c -2.795,0 -4.81,-1.235 -4.81,-4.095 0,-3.25 2.99,-5.655 11.83,-6.825 l 0,7.345 c -2.275,2.275 -4.29,3.575 -7.02,3.575 z" />
    <path
       id="path5247"
       style="font-style:normal;font-variant:normal;font-weight:bold;font-stretch:normal;font-size:65px;font-family:'Noto Sans CJK JP';-inkscape-font-specification:'Noto Sans CJK JP Bold';fill:#e6e6e6;fill-opacity:1;stroke:none;stroke-opacity:1"
       d="m 651.49422,167.2547 32.24,0 0,-8.06 -10.465,0 c -2.21,0 -5.395,0.26 -7.8,0.52 8.775,-8.58 15.99,-17.94 15.99,-26.65 0,-8.97 -6.045,-14.82 -15.145,-14.82 -6.565,0 -10.855,2.6 -15.275,7.28 l 5.2,5.2 c 2.405,-2.665 5.33,-4.94 8.84,-4.94 4.55,0 7.215,2.925 7.215,7.8 0,7.41 -7.735,16.445 -20.8,28.145 l 0,5.525 z" />
    <path
       id="path5249"
       style="font-style:normal;font-variant:normal;font-weight:bold;font-stretch:normal;font-size:65px;font-family:'Noto Sans CJK JP';-inkscape-font-specification:'Noto Sans CJK JP Bold';fill:#e6e6e6;fill-opacity:1;stroke:none;stroke-opacity:1"
       d="m 706.21406,168.1647 c 9.75,0 16.25,-8.58 16.25,-25.155 0,-16.575 -6.5,-24.765 -16.25,-24.765 -9.815,0 -16.315,8.125 -16.315,24.765 0,16.575 6.5,25.155 16.315,25.155 z m 0,-7.475 c -4.16,0 -7.28,-4.16 -7.28,-17.68 0,-13.455 3.12,-17.355 7.28,-17.355 4.095,0 7.215,3.9 7.215,17.355 0,13.52 -3.12,17.68 -7.215,17.68 z" />
    <path
       id="path5251"
       style="font-style:normal;font-variant:normal;font-weight:bold;font-stretch:normal;font-size:65px;font-family:'Noto Sans CJK JP';-inkscape-font-specification:'Noto Sans CJK JP Bold';fill:#e6e6e6;fill-opacity:1;stroke:none;stroke-opacity:1"
       d="m 730.70891,167.2547 28.925,0 0,-7.735 -9.035,0 0,-40.365 -7.085,0 c -3.055,1.885 -6.37,3.12 -11.18,4.03 l 0,5.915 8.71,0 0,30.42 -10.335,0 0,7.735 z" />
    <path
       id="path5253"
       style="font-style:normal;font-variant:normal;font-weight:bold;font-stretch:normal;font-size:65px;font-family:'Noto Sans CJK JP';-inkscape-font-specification:'Noto Sans CJK JP Bold';fill:#e6e6e6;fill-opacity:1;stroke:none;stroke-opacity:1"
       d="m 775.80875,167.2547 9.685,0 c 0.78,-18.85 2.275,-28.665 13.455,-42.315 l 0,-5.785 -31.98,0 0,7.995 21.645,0 c -9.165,12.74 -11.96,23.4 -12.805,40.105 z" />
  </g>
</svg>
